#N canvas 109 147 1070 573 10;
#X msg 95 115 listen 9997;
#X msg 117 139 listen 0;
#X obj 99 204 oscparse;
#X obj 99 233 list trim;
#X obj 95 335 print s0;
#X obj 153 335 print s1;
#X obj 214 334 print s2;
#X obj 279 335 print s3;
#X text 176 233 converts list to message;
#X text 175 206 converts OSC message to list;
#X obj 99 168 netreceive -u -b 9997;
#X obj 99 264 route sensor0 sensor1 sensor2 sensor3;
#X obj 478 375 adc~;
#X obj 469 452 dac~;
#X obj 441 413 *~;
#X obj 441 256 vsl 15 128 0 1 0 0 empty empty empty 0 -9 0 10 -262144
-1 -1 4482 1;
#X obj 511 415 *~;
#X obj 537 253 vsl 15 128 0 1 0 0 empty empty empty 0 -9 0 10 -262144
-1 -1 4482 1;
#X obj 98 294 / 255;
#X obj 153 301 / 255;
#X obj 214 300 / 255;
#X obj 279 301 / 255;
#X obj 615 254 vsl 15 128 0 1 0 0 empty empty empty 0 -9 0 10 -262144
-1 -1 6973 1;
#X obj 677 247 vsl 15 128 0 1 0 0 empty empty empty 0 -9 0 10 -262144
-1 -1 0 1;
#X connect 0 0 10 0;
#X connect 1 0 10 0;
#X connect 2 0 3 0;
#X connect 3 0 11 0;
#X connect 10 0 2 0;
#X connect 11 0 18 0;
#X connect 11 1 19 0;
#X connect 11 2 20 0;
#X connect 11 3 21 0;
#X connect 12 0 14 0;
#X connect 12 1 16 0;
#X connect 14 0 13 0;
#X connect 14 0 13 1;
#X connect 15 0 14 1;
#X connect 16 0 13 1;
#X connect 16 0 13 0;
#X connect 17 0 16 1;
#X connect 18 0 15 0;
#X connect 18 0 4 0;
#X connect 19 0 5 0;
#X connect 19 0 17 0;
#X connect 20 0 6 0;
#X connect 20 0 22 0;
#X connect 21 0 7 0;
#X connect 21 0 23 0;
