#N canvas 552 100 1240 960 10;
#X obj 274 582 env~ 128;
#X obj 277 608 - 100;
#X obj 278 635 vu 15 120 empty empty -1 -8 0 10 -66577 -1 1 0;
#X obj 489 589 env~ 128;
#X obj 492 615 - 100;
#X obj 493 642 vu 15 120 empty empty -1 -8 0 10 -66577 -1 1 0;
#X obj 692 589 env~ 128;
#X obj 695 615 - 100;
#X obj 696 642 vu 15 120 empty empty -1 -8 0 10 -66577 -1 1 0;
#X obj 914 590 env~ 128;
#X obj 917 616 - 100;
#X obj 918 643 vu 15 120 empty empty -1 -8 0 10 -66577 -1 1 0;
#X obj 571 914 dac~;
#X obj 219 607 line~;
#X msg 220 582 \$1 20;
#X obj 220 445 vsl 15 128 0 1 0 0 empty empty empty 0 -9 0 10 -262144
-1 -1 11555 1;
#X obj 841 640 *~;
#X obj 859 615 line~;
#X msg 860 590 \$1 20;
#X obj 860 452 vsl 15 128 0 1 0 0 empty empty empty 0 -9 0 10 -262144
-1 -1 9513 1;
#X obj 201 630 *~;
#X obj 434 607 line~;
#X msg 435 582 \$1 20;
#X obj 435 445 vsl 15 128 0 1 0 0 empty empty empty 0 -9 0 10 -262144
-1 -1 8068 1;
#X obj 416 630 *~;
#X obj 641 612 line~;
#X msg 642 587 \$1 20;
#X obj 642 450 vsl 15 128 0 1 0 0 empty empty empty 0 -9 0 10 -262144
-1 -1 12700 1;
#X obj 623 635 *~;
#X msg 454 114 listen 9997;
#X msg 476 138 listen 0;
#X obj 458 203 oscparse;
#X obj 458 232 list trim;
#X obj 454 334 print s0;
#X obj 512 334 print s1;
#X obj 573 333 print s2;
#X obj 638 334 print s3;
#X text 535 232 converts list to message;
#X text 534 205 converts OSC message to list;
#X obj 458 167 netreceive -u -b 9997;
#X obj 458 263 route sensor0 sensor1 sensor2 sensor3;
#X obj 457 293 / 255;
#X obj 512 300 / 255;
#X obj 573 299 / 255;
#X obj 638 300 / 255;
#X obj 517 484 adc~ 1 2 3 4 5 6;
#X connect 0 0 1 0;
#X connect 1 0 2 0;
#X connect 3 0 4 0;
#X connect 4 0 5 0;
#X connect 6 0 7 0;
#X connect 7 0 8 0;
#X connect 9 0 10 0;
#X connect 10 0 11 0;
#X connect 13 0 20 1;
#X connect 14 0 13 0;
#X connect 15 0 14 0;
#X connect 16 0 12 1;
#X connect 16 0 12 0;
#X connect 17 0 16 1;
#X connect 18 0 17 0;
#X connect 19 0 18 0;
#X connect 20 0 12 0;
#X connect 20 0 12 1;
#X connect 21 0 24 1;
#X connect 22 0 21 0;
#X connect 23 0 22 0;
#X connect 24 0 12 0;
#X connect 24 0 12 1;
#X connect 25 0 28 1;
#X connect 26 0 25 0;
#X connect 27 0 26 0;
#X connect 28 0 12 0;
#X connect 28 0 12 1;
#X connect 29 0 39 0;
#X connect 30 0 39 0;
#X connect 31 0 32 0;
#X connect 32 0 40 0;
#X connect 39 0 31 0;
#X connect 40 0 41 0;
#X connect 40 1 42 0;
#X connect 40 2 43 0;
#X connect 40 3 44 0;
#X connect 41 0 33 0;
#X connect 41 0 15 0;
#X connect 42 0 34 0;
#X connect 42 0 23 0;
#X connect 43 0 35 0;
#X connect 43 0 27 0;
#X connect 44 0 36 0;
#X connect 44 0 19 0;
#X connect 45 2 20 0;
#X connect 45 2 0 0;
#X connect 45 3 24 0;
#X connect 45 3 3 0;
#X connect 45 4 28 0;
#X connect 45 4 6 0;
#X connect 45 5 16 0;
#X connect 45 5 9 0;
