#N canvas 834 91 898 740 12;
#X obj 377 194 adc~ 1 2 3 4;
#X obj 134 292 env~ 128;
#X obj 137 318 - 100;
#X obj 138 345 vu 15 120 empty empty -1 -8 0 10 -66577 -1 1 0;
#X obj 349 299 env~ 128;
#X obj 352 325 - 100;
#X obj 353 352 vu 15 120 empty empty -1 -8 0 10 -66577 -1 1 0;
#X obj 552 299 env~ 128;
#X obj 555 325 - 100;
#X obj 556 352 vu 15 120 empty empty -1 -8 0 10 -66577 -1 1 0;
#X obj 774 300 env~ 128;
#X obj 777 326 - 100;
#X obj 778 353 vu 15 120 empty empty -1 -8 0 10 -66577 -1 1 0;
#X obj 431 624 dac~;
#X obj 76 314 line~;
#X msg 77 289 \$1 20;
#X obj 77 152 vsl 15 128 0 1 0 0 empty empty empty 0 -9 0 10 -262144
-1 -1 0 1;
#X obj 700 383 *~;
#X obj 717 355 line~;
#X msg 718 330 \$1 20;
#X obj 718 192 vsl 15 128 0 1 0 0 empty empty empty 0 -9 0 10 -262144
-1 -1 0 1;
#X obj 58 337 *~;
#X obj 294 317 line~;
#X msg 295 292 \$1 20;
#X obj 295 155 vsl 15 128 0 1 0 0 empty empty empty 0 -9 0 10 -262144
-1 -1 0 1;
#X obj 276 340 *~;
#X obj 501 322 line~;
#X msg 502 297 \$1 20;
#X obj 502 160 vsl 15 128 0 1 0 0 empty empty empty 0 -9 0 10 -262144
-1 -1 0 1;
#X obj 483 345 *~;
#X connect 0 0 1 0;
#X connect 0 0 21 0;
#X connect 0 1 4 0;
#X connect 0 1 25 0;
#X connect 0 2 7 0;
#X connect 0 2 29 0;
#X connect 0 3 10 0;
#X connect 0 3 17 0;
#X connect 1 0 2 0;
#X connect 2 0 3 0;
#X connect 4 0 5 0;
#X connect 5 0 6 0;
#X connect 7 0 8 0;
#X connect 8 0 9 0;
#X connect 10 0 11 0;
#X connect 11 0 12 0;
#X connect 14 0 21 1;
#X connect 15 0 14 0;
#X connect 16 0 15 0;
#X connect 17 0 13 1;
#X connect 17 0 13 0;
#X connect 18 0 17 1;
#X connect 19 0 18 0;
#X connect 20 0 19 0;
#X connect 21 0 13 0;
#X connect 21 0 13 1;
#X connect 22 0 25 1;
#X connect 23 0 22 0;
#X connect 24 0 23 0;
#X connect 25 0 13 0;
#X connect 25 0 13 1;
#X connect 26 0 29 1;
#X connect 27 0 26 0;
#X connect 28 0 27 0;
#X connect 29 0 13 0;
#X connect 29 0 13 1;
